<?xml version="1.0" encoding="UTF-8"?>
<svg id="Layer_1" data-name="Layer 1" xmlns="http://www.w3.org/2000/svg" viewBox="0 0 202.16 324.99">
  <path d="M2.11,137.66l99.41-59.13,58.8,57.11-67.85,45.8,16.96,27.71,92.73-62.76L102.68,1.68c-1.53-2.22-4.8-2.25-6.36-.05L.85,136.29c-.59.83.38,1.88,1.26,1.36Z" style="fill: #6164f2; stroke-width: 0px;"/>
  <path d="M100.08.05c-1.38-.21-2.85.31-3.76,1.59L.85,136.29c-.59.83.38,1.88,1.26,1.36l97.97-58.28V.05Z" style="fill: #4b4f99; stroke-width: 0px;"/>
  <path d="M200.05,187.33l-99.41,59.13-58.8-57.11,67.85-45.8-16.96-27.71L0,178.62l99.47,144.69c1.53,2.22,4.8,2.25,6.36.05l95.47-134.66c.59-.83-.38-1.88-1.26-1.36Z" style="fill: #6164f2; stroke-width: 0px;"/>
  <path d="M102.08,324.95c1.38.21,2.85-.31,3.76-1.59l95.47-134.66c.59-.83-.38-1.88-1.26-1.36l-97.97,58.28v79.33Z" style="fill: #4b4f99; stroke-width: 0px;"/>
</svg>