<?xml version="1.0" encoding="UTF-8"?><svg id="Layer_1" xmlns="http://www.w3.org/2000/svg" viewBox="0 0 1126.02 328.32"><path d="M113.31,138.9l79.54-47.31,47.05,45.69-54.29,36.64,13.57,22.17,74.19-50.22L193.78,30.1c-1.22-1.78-3.84-1.8-5.09-.04l-76.39,107.74c-.47.67.3,1.51,1.01,1.09Z" fill="#6164f2" stroke-width="0"/><path d="M191.7,28.79c-1.1-.17-2.28.25-3.01,1.27l-76.39,107.74c-.47.67.3,1.51,1.01,1.09l78.39-46.63V28.79Z" fill="#4b4f99" stroke-width="0"/><path d="M271.69,178.65l-79.54,47.31-47.05-45.69,54.29-36.64-13.57-22.17-74.19,50.22,79.59,115.77c1.22,1.78,3.84,1.8,5.09.04l76.39-107.74c.47-.67-.3-1.51-1.01-1.09Z" fill="#6164f2" stroke-width="0"/><path d="M193.3,288.75c1.1.17,2.28-.25,3.01-1.27l76.39-107.74c.47-.67-.3-1.51-1.01-1.09l-78.39,46.63v63.47Z" fill="#4b4f99" stroke-width="0"/><text transform="translate(316.9 266.13)" fill="#fff" font-family="SFProDisplay-Bold, &apos;SF Pro Display&apos;" font-size="274.14" font-weight="700"><tspan x="0" y="0">Prism</tspan></text></svg>